<?xml version="1.0" standalone="no"?>
<!DOCTYPE svg PUBLIC "-//W3C//DTD SVG 20010904//EN"
 "http://www.w3.org/TR/2001/REC-SVG-20010904/DTD/svg10.dtd">
<svg version="1.0" xmlns="http://www.w3.org/2000/svg"
 width="200.000000pt" height="200.000000pt" viewBox="0 0 200.000000 200.000000"
 preserveAspectRatio="xMidYMid meet">
<metadata>
Created by potrace 1.14, written by Peter Selinger 2001-2017
</metadata>
<g transform="translate(0.000000,200.000000) scale(0.100000,-0.100000)"
fill="#000000" stroke="none">
<path d="M960 1482 l0 -72 -100 0 -100 0 0 -168 0 -168 70 -69 70 -69 0 172 0
172 100 0 100 0 0 -103 0 -103 70 -69 70 -69 0 169 0 170 -140 140 -140 140 0
-73z"/>
<path d="M620 725 l0 -115 70 0 c68 0 70 1 70 25 0 23 -4 25 -40 25 l-40 0 0
90 0 90 -30 0 -30 0 0 -115z"/>
<path d="M807 770 c-51 -41 -43 -126 16 -156 64 -34 137 12 137 86 0 77 -91
119 -153 70z m91 -66 c5 -55 -51 -71 -64 -18 -8 30 12 56 40 52 15 -2 22 -11
24 -34z"/>
<path d="M1010 772 c-11 -9 -23 -34 -27 -54 -5 -32 -1 -41 26 -68 26 -27 36
-31 62 -25 24 6 30 4 27 -6 -3 -9 -21 -14 -49 -15 -40 0 -44 -3 -44 -25 0 -22
4 -24 52 -27 45 -3 56 1 78 22 23 23 25 32 25 119 l0 95 -65 0 c-46 0 -71 -4
-85 -16z m88 -63 c4 -30 -22 -46 -44 -28 -15 12 -19 41 -7 53 16 16 48 1 51
-25z"/>
<path d="M1218 760 c-27 -27 -30 -36 -25 -72 8 -57 36 -83 93 -83 38 0 50 5
70 28 82 95 -49 215 -138 127z m100 -56 c4 -39 -18 -60 -47 -44 -39 20 -19 84
24 78 14 -2 21 -12 23 -34z"/>
<path d="M584 483 c6 -18 13 -33 16 -33 3 0 10 15 16 33 10 32 9 34 -16 34
-25 0 -26 -2 -16 -34z"/>
<path d="M654 506 c-12 -31 0 -51 31 -51 27 0 30 3 30 30 0 25 -4 30 -28 33
-17 2 -29 -2 -33 -12z m42 -32 c-5 -13 -10 -14 -18 -6 -6 6 -8 18 -4 28 5 13
10 14 18 6 6 -6 8 -18 4 -28z"/>
<path d="M740 497 c0 -42 50 -66 64 -31 9 24 7 54 -4 54 -5 0 -10 -11 -10 -24
0 -14 -4 -28 -10 -31 -6 -4 -10 7 -10 24 0 21 -5 31 -15 31 -9 0 -15 -9 -15
-23z"/>
<path d="M830 486 c0 -36 22 -51 33 -23 4 10 6 10 6 0 1 -7 5 -13 10 -13 5 0
9 15 8 33 -2 27 -6 32 -29 35 -26 3 -28 1 -28 -32z"/>
<path d="M960 500 c0 -11 5 -20 10 -20 6 0 10 -5 10 -11 0 -5 -4 -7 -10 -4 -5
3 -10 1 -10 -4 0 -15 37 -14 46 1 4 6 0 16 -9 23 -18 13 -24 30 -7 20 6 -3 10
-1 10 4 0 6 -9 11 -20 11 -13 0 -20 -7 -20 -20z"/>
<path d="M1030 485 c0 -32 3 -35 28 -35 23 1 24 2 10 11 -10 5 -18 21 -18 34
0 14 -4 25 -10 25 -5 0 -10 -16 -10 -35z"/>
<path d="M1104 506 c-11 -29 1 -51 28 -54 22 -3 29 2 34 22 3 14 3 30 -1 35
-9 16 -55 13 -61 -3z m42 -32 c-5 -13 -10 -14 -18 -6 -6 6 -8 18 -4 28 5 13
10 14 18 6 6 -6 8 -18 4 -28z"/>
<path d="M1199 504 c-9 -11 -10 -20 -2 -32 14 -23 57 -22 61 1 3 12 -3 17 -20
17 -18 0 -20 -2 -8 -10 13 -8 12 -10 -2 -10 -10 0 -18 7 -18 15 0 14 12 19 33
16 4 0 7 4 7 9 0 16 -36 12 -51 -6z"/>
<path d="M1297 513 c-2 -5 -7 -19 -10 -33 -6 -24 -4 -26 27 -26 33 0 33 0 23
33 -10 30 -30 43 -40 26z"/>
<path d="M1370 485 c0 -19 5 -35 10 -35 6 0 10 8 10 18 1 16 1 16 11 0 16 -29
29 -21 29 17 0 34 -13 47 -23 23 -4 -10 -6 -10 -6 0 -1 6 -8 12 -16 12 -10 0
-15 -11 -15 -35z"/>
</g>
</svg>
